<?xml version="1.0" encoding="UTF-8" standalone="no"?>
<!DOCTYPE svg PUBLIC "-//W3C//DTD SVG 1.1//EN" "http://www.w3.org/Graphics/SVG/1.1/DTD/svg11.dtd">
<svg width="100%" height="100%" viewBox="0 0 230 177" version="1.1" xmlns="http://www.w3.org/2000/svg" xmlns:xlink="http://www.w3.org/1999/xlink" xml:space="preserve" xmlns:serif="http://www.serif.com/" style="fill-rule:evenodd;clip-rule:evenodd;stroke-linejoin:round;stroke-miterlimit:2;">
    <g transform="matrix(1,0,0,1,-20.014976,-20.042963)">
        <g id="logomark" transform="matrix(0.46473,0,0,0.590775,-3771.659857,-878.68415)">
            <path d="M8296.212,1521.267C8323.679,1521.267 8323.679,1542.566 8323.679,1542.566C8323.679,1563.864 8323.679,1740.502 8323.679,1798.148C8323.679,1798.148 8323.679,1819.446 8296.212,1819.446L8158.874,1819.446L8158.874,1521.267L8296.212,1521.267ZM8241.277,1776.849C8268.744,1776.849 8268.744,1748.857 8268.744,1748.857L8268.744,1593.138C8268.744,1593.138 8268.744,1563.864 8241.277,1563.864L8213.809,1563.864L8213.809,1776.849L8241.277,1776.849ZM8625.822,1521.267C8625.822,1521.267 8653.29,1521.267 8653.29,1542.566L8653.29,1798.148C8653.29,1798.148 8653.29,1819.446 8625.822,1819.446L8488.485,1819.446L8488.485,1521.267L8625.822,1521.267ZM8570.887,1776.849C8598.355,1776.849 8598.355,1748.857 8598.355,1748.857L8598.355,1593.138C8598.355,1593.138 8598.355,1563.864 8570.887,1563.864L8543.42,1563.864L8543.42,1776.849L8570.887,1776.849ZM8406.082,1776.849L8378.614,1776.849L8378.614,1563.864L8406.082,1563.864C8433.55,1563.864 8433.55,1593.138 8433.55,1593.138L8433.55,1748.857C8433.55,1748.857 8433.55,1776.849 8406.082,1776.849Z"/>
        </g>
    </g>
</svg>
