<?xml version="1.0" encoding="UTF-8" standalone="no"?>
<!DOCTYPE svg PUBLIC "-//W3C//DTD SVG 1.1//EN" "http://www.w3.org/Graphics/SVG/1.1/DTD/svg11.dtd">
<svg width="100%" height="100%" viewBox="0 0 500 572" version="1.1" xmlns="http://www.w3.org/2000/svg" xmlns:xlink="http://www.w3.org/1999/xlink" xml:space="preserve" xmlns:serif="http://www.serif.com/" style="fill-rule:evenodd;clip-rule:evenodd;stroke-linejoin:round;stroke-miterlimit:2;">
    <g id="DULL" transform="matrix(0.406105,0,0,0.406105,-2812.573898,-132.478846)">
        <path d="M7324.272,1510.887C7372.053,1510.887 7402.322,1484.294 7402.322,1438.458C7402.322,1392.622 7372.053,1366.029 7324.272,1366.029L7250.978,1366.029L7250.978,1510.887L7324.272,1510.887ZM7324.272,1402.568C7350,1402.568 7358.865,1405.811 7358.865,1438.458C7358.865,1471.105 7350,1474.348 7324.272,1474.348L7291.624,1474.348L7291.624,1402.568L7324.272,1402.568Z" style="fill-rule:nonzero;"/>
        <path d="M7486.21,1513.049C7536.803,1513.049 7560.153,1488.618 7560.153,1450.133L7560.153,1366.029L7519.506,1366.029L7519.506,1446.89C7519.506,1467.43 7513.668,1473.699 7486.21,1473.699C7458.752,1473.699 7452.914,1467.43 7452.914,1446.89L7452.914,1366.029L7412.268,1366.029L7412.268,1450.133C7412.268,1488.618 7435.618,1513.049 7486.21,1513.049Z" style="fill-rule:nonzero;"/>
        <path d="M7696.579,1510.887L7696.579,1474.348L7612.907,1474.348L7612.907,1366.029L7572.26,1366.029L7572.26,1510.887L7696.579,1510.887Z" style="fill-rule:nonzero;"/>
        <path d="M7831.708,1510.887L7831.708,1474.348L7748.036,1474.348L7748.036,1366.029L7707.389,1366.029L7707.389,1510.887L7831.708,1510.887Z" style="fill-rule:nonzero;"/>
    </g>
    <g id="isdead" transform="matrix(0.416324,0,0,0.416324,-363.198602,255.578918)">
        <g id="is" transform="matrix(0.883012,0,0,0.883012,-5216.08701,-624.147708)">
            <path d="M7268.972,1396.684L7268.972,1373.515L7254.415,1373.515L7254.415,1396.684L7268.972,1396.684ZM7268.972,1510.887L7268.972,1409.601L7254.415,1409.601L7254.415,1510.887L7268.972,1510.887Z" style="fill:rgb(30,30,30);fill-rule:nonzero;"/>
            <path d="M7337.863,1512.937C7364.108,1512.937 7382.971,1502.891 7382.971,1483.823C7382.971,1467.42 7371.284,1460.039 7349.55,1456.963L7324.741,1453.478C7307.929,1451.017 7302.598,1447.327 7302.598,1436.87C7302.598,1424.773 7311.414,1419.647 7332.738,1419.647C7358.572,1419.647 7366.568,1427.849 7366.568,1443.021L7366.568,1444.046L7381.125,1444.046L7381.125,1443.636C7381.125,1419.852 7362.262,1407.55 7333.148,1407.55C7305.263,1407.55 7288.246,1418.827 7288.246,1436.665C7288.246,1453.478 7299.932,1460.654 7318.385,1463.114L7345.45,1467.01C7362.262,1469.675 7368.618,1473.161 7368.618,1483.823C7368.618,1495.51 7360.827,1500.84 7338.069,1500.84C7313.26,1500.84 7303.213,1494.894 7303.213,1477.877L7303.213,1476.647L7288.656,1476.647L7288.656,1477.057C7288.656,1500.43 7306.699,1512.937 7337.863,1512.937Z" style="fill:rgb(30,30,30);fill-rule:nonzero;"/>
        </g>
        <g id="dead" transform="matrix(0.796686,0,0,0.796686,-4429.792661,-493.719105)">
            <path d="M7304.152,1513.159C7328.922,1513.159 7347.102,1500.206 7352.556,1477.709L7353.465,1477.709L7353.465,1510.887L7368.237,1510.887L7368.237,1358.63L7352.102,1358.63L7352.102,1429.986L7350.966,1429.986C7345.966,1410.67 7329.377,1396.353 7302.789,1396.353C7268.247,1396.353 7248.249,1420.669 7248.249,1454.756C7248.249,1488.844 7268.247,1513.159 7304.152,1513.159ZM7264.611,1454.756C7264.611,1422.26 7282.109,1411.352 7307.788,1411.352C7335.513,1411.352 7352.102,1426.805 7352.102,1454.529L7352.102,1456.574C7352.102,1483.163 7334.604,1498.388 7308.243,1498.388C7281.882,1498.388 7264.611,1487.253 7264.611,1454.756Z" style="fill:rgb(30,30,30);fill-rule:nonzero;"/>
            <path d="M7448.683,1513.159C7480.043,1513.159 7503.223,1497.025 7503.223,1473.618L7503.223,1472.027L7487.088,1472.027L7487.088,1473.618C7487.088,1489.98 7474.816,1499.752 7448.456,1499.752C7418.686,1499.752 7405.733,1484.526 7404.824,1459.301L7503.677,1459.301C7504.359,1456.347 7504.813,1452.938 7504.813,1448.848C7504.813,1415.442 7481.407,1396.353 7448.456,1396.353C7412.323,1396.353 7389.598,1420.669 7389.598,1454.756C7389.598,1490.435 7412.55,1513.159 7448.683,1513.159ZM7448.228,1409.761C7474.589,1409.761 7489.588,1422.26 7489.588,1445.894L7489.588,1449.302L7404.824,1449.302C7405.96,1424.76 7419.14,1409.761 7448.228,1409.761Z" style="fill:rgb(30,30,30);fill-rule:nonzero;"/>
            <path d="M7557.308,1513.159C7583.442,1513.159 7603.212,1501.343 7609.803,1480.663L7610.939,1480.663L7610.939,1510.887L7625.483,1510.887L7625.483,1440.667C7625.483,1415.897 7610.939,1396.353 7576.851,1396.353C7542.31,1396.353 7522.766,1415.67 7522.766,1439.303L7522.766,1440.212L7538.901,1440.212L7538.901,1439.303C7538.901,1419.533 7551.627,1410.897 7575.715,1410.897C7600.258,1410.897 7609.803,1419.533 7609.803,1441.349L7609.803,1449.984L7556.399,1455.893C7535.492,1458.165 7520.266,1466.119 7520.266,1484.526C7520.266,1502.706 7535.265,1513.159 7557.308,1513.159ZM7536.401,1483.39C7536.401,1471.8 7544.582,1467.71 7561.398,1466.119L7609.803,1460.665L7609.803,1461.574C7609.803,1488.617 7588.214,1500.661 7560.944,1500.661C7543.9,1500.661 7536.401,1494.752 7536.401,1483.39Z" style="fill:rgb(30,30,30);fill-rule:nonzero;"/>
            <path d="M7700.475,1513.159C7725.245,1513.159 7743.425,1500.206 7748.879,1477.709L7749.788,1477.709L7749.788,1510.887L7764.559,1510.887L7764.559,1358.63L7748.425,1358.63L7748.425,1429.986L7747.288,1429.986C7742.289,1410.67 7725.7,1396.353 7699.112,1396.353C7664.57,1396.353 7644.572,1420.669 7644.572,1454.756C7644.572,1488.844 7664.57,1513.159 7700.475,1513.159ZM7660.934,1454.756C7660.934,1422.26 7678.432,1411.352 7704.111,1411.352C7731.835,1411.352 7748.425,1426.805 7748.425,1454.529L7748.425,1456.574C7748.425,1483.163 7730.926,1498.388 7704.566,1498.388C7678.205,1498.388 7660.934,1487.253 7660.934,1454.756Z" style="fill:rgb(30,30,30);fill-rule:nonzero;"/>
        </g>
    </g>
    <g id="logomark" transform="matrix(0.930391,0,0,1.182733,-7570.939018,-1779.269)">
        <path d="M8296.212,1521.267C8323.679,1521.267 8323.679,1542.566 8323.679,1542.566C8323.679,1563.864 8323.679,1740.502 8323.679,1798.148C8323.679,1798.148 8323.679,1819.446 8296.212,1819.446L8158.874,1819.446L8158.874,1521.267L8296.212,1521.267ZM8241.277,1776.849C8268.744,1776.849 8268.744,1748.857 8268.744,1748.857L8268.744,1593.138C8268.744,1593.138 8268.744,1563.864 8241.277,1563.864L8213.809,1563.864L8213.809,1776.849L8241.277,1776.849ZM8625.822,1521.267C8625.822,1521.267 8653.29,1521.267 8653.29,1542.566L8653.29,1798.148C8653.29,1798.148 8653.29,1819.446 8625.822,1819.446L8488.485,1819.446L8488.485,1521.267L8625.822,1521.267ZM8570.887,1776.849C8598.355,1776.849 8598.355,1748.857 8598.355,1748.857L8598.355,1593.138C8598.355,1593.138 8598.355,1563.864 8570.887,1563.864L8543.42,1563.864L8543.42,1776.849L8570.887,1776.849ZM8406.082,1776.849L8378.614,1776.849L8378.614,1563.864L8406.082,1563.864C8433.55,1563.864 8433.55,1593.138 8433.55,1593.138L8433.55,1748.857C8433.55,1748.857 8433.55,1776.849 8406.082,1776.849Z"/>
    </g>
</svg>
